/* XPM */
static char *graphic[] = {
/* width height num_colors chars_per_pixel */
"16 16 46 1", 
/* colors */
"  c None",
". c None",
"X c #FDFDFD",
"o c None",
"O c #B5B5B5",
"+ c #292929",
"@ c #B1B1B1",
"# c #343434",
"$ c #696969",
"% c #ADADAD",
"& c #9A9A9A",
"* c #434343",
"= c #A9A9A9",
"- c #5D5D5D",
"; c #8E8E8E",
": c #D2D2D2",
"> c #E1E1E1",
", c #ACACAC",
"< c #FFFFFF",
"1 c #606060",
"2 c #D5D5D5",
"3 c #000000",
"4 c #000000",
"5 c #000000",
"6 c #000000",
"7 c #000000",
"8 c #BEBEBE",
"9 c #000000",
"0 c #000000",
"q c #000000",
"w c #898989",
"e c #EFEFEF",
"r c #EBEBEB",
"t c #727272",
"y c #A3A3A3",
"u c #2A2A2A",
"i c #000000",
"p c #000000",
"a c #9F9F9F",
"s c #C1C1C1",
"d c #040404",
"f c #000000",
"g c #000000",
"h c #797979",
"j c #000000",
"k c #222222",
/* pixels */
" 3iffffffffffp4.",
"7jjjjj-&&-jjjjj0",
"jjjj*:=<<=:*jjjj",
"gjj1<,X<<X,<1jjg",
"fjja@=<<<<=@ajjf",
"fjj;<<%rr%<<;jjf",
"fjju8<<ss<<8ujjf",
"fjjj%r<>><r%jjjf",
"fjjj$@<>><@$jjjf",
"fjjjdy<>><ydjjjf",
"fjjjjte>>etjjjjf",
"fjjjjkO>>Okjjjjf",
"gjjjjjh>>hjjjjjg",
"jjjjjju22+jjjjjj",
"9jjjjjjwwjjjjjjq",
".5pffff##ffffp6o"
};
