/* XPM */
static char *graphic[] = {
/* width height num_colors chars_per_pixel */
"32 32 95 2", 
/* colors */
"   c None",
".  c #666666",
"X  c #888888",
"o  c #979797",
"O  c #B9B9B9",
"+  c #DBDBDB",
"@  c #FDFDFD",
"#  c #848484",
"$  c #F9F9F9",
"%  c #808080",
"&  c #6D6D6D",
"*  c #B1B1B1",
"=  c #F5F5F5",
"-  c #9E9E9E",
";  c #8B8B8B",
":  c #ADADAD",
">  c #656565",
",  c #747474",
"<  c #B8B8B8",
"1  c #3F3F3F",
"2  c #0A0A0A",
"3  c #B4B4B4",
"4  c #F8F8F8",
"5  c None",
"6  c #7F7F7F",
"7  c None",
"8  c #060606",
"9  c #282828",
"0  c None",
"q  c #8E8E8E",
"w  c #B0B0B0",
"e  c #D2D2D2",
"r  c None",
"t  c None",
"y  c #9D9D9D",
"u  c None",
"i  c #242424",
"p  c #464646",
"a  c #8A8A8A",
"s  c #999999",
"d  c #BBBBBB",
"f  c #FFFFFF",
"g  c #646464",
"h  c #ECECEC",
"j  c #737373",
"k  c #3E3E3E",
"l  c #C6C6C6",
"z  c #919191",
"x  c #D5D5D5",
"c  c #000000",
"v  c #181818",
"b  c #A0A0A0",
"n  c #000000",
"m  c #AFAFAF",
"M  c #000000",
"N  c #010101",
"B  c #CDCDCD",
"V  c #EFEFEF",
"C  c #545454",
"Z  c #989898",
"A  c #BABABA",
"S  c #DCDCDC",
"D  c #FEFEFE",
"F  c #000000",
"G  c #000000",
"H  c #858585",
"J  c #000000",
"K  c #C9C9C9",
"L  c #EBEBEB",
"P  c #000000",
"I  c #727272",
"U  c #949494",
"Y  c #000000",
"T  c #000000",
"R  c #000000",
"E  c #818181",
"W  c #A3A3A3",
"Q  c #000000",
"!  c #E7E7E7",
"~  c #4C4C4C",
"^  c #F6F6F6",
"/  c #171717",
"(  c #393939",
")  c #7D7D7D",
"_  c #000000",
"`  c #000000",
"'  c #000000",
"]  c #000000",
"[  c #000000",
"{  c #AEAEAE",
"}  c #000000",
"|  c #D0D0D0",
" . c #000000",
".. c #BDBDBD",
"X. c #000000",
/* pixels */
"                                                                ",
"          0 F _ ' ' ' ' ' ' ' ' ' ' ' ' ' ' ' ' _ G r           ",
"        c X.X.X.X.X.X.X.X.X.( & O & ( X.X.X.X.X.X.X.X.n         ",
"      5 X.X.X.X.X.X.X.X.9 3 * e f e * 3 9 X.X.X.X.X.X.X.0       ",
"      Y X.X.X.X.X.X.v b D ..l f f f l ..D b v X.X.X.X.X.R       ",
"      } X.X.X.X.2 q 4 f K A f f f f f A K f 4 q 2 X.X.X.}       ",
"      [ X.X.X.X.w f f x m f f f f f f f m x f f w X.X.X.]       ",
"      ' X.X.X.k f f S W f f f f f f f f f W S f f k X.X.'       ",
"      ' X.X.X.z U z : # = f f f f f f f = # : z U z X.X.'       ",
"      ' X.X.X.< f f f $ a | f f f f f | a $ f f f < X.X.'       ",
"      ' X.X.X./ ! f f f f ..Z f f f Z ..f f f f ! / X.X.'       ",
"      ' X.X.X.X.C = f f f f h ) B ) h f f f f = C X.X.X.'       ",
"      ' X.X.X.X.. j @ f f f f f , f f f f f @ j . X.X.X.'       ",
"      ' X.X.X.X.8 + H f f f f f X f f f f f H + 8 X.X.X.'       ",
"      ' X.X.X.X.X.o { ! f f f f X f f f f ! { o X.X.X.X.'       ",
"      ' X.X.X.X.X.i ^ s f f f f X f f f f s ^ i X.X.X.X.'       ",
"      ' X.X.X.X.X.X.d E f f f f X f f f f E d X.X.X.X.X.'       ",
"      ' X.X.X.X.X.X.~ w ! f f f X f f f ! w ~ X.X.X.X.X.'       ",
"      ' X.X.X.X.X.X.X.x s f f f X f f f s x X.X.X.X.X.X.'       ",
"      ' X.X.X.X.X.X.X.I 6 f f f X f f f % I X.X.X.X.X.X.'       ",
"      ' X.X.X.X.X.X.X.8 - L f f X f f L - 8 X.X.X.X.X.X.'       ",
"      ' X.X.X.X.X.X.X.X.; y f f X f f y ; X.X.X.X.X.X.X.'       ",
"      ' X.X.X.X.X.X.X.X.i % f f X f f % i X.X.X.X.X.X.X.'       ",
"      ' X.X.X.X.X.X.X.X.X.g L f X f L g X.X.X.X.X.X.X.X.'       ",
"      ' X.X.X.X.X.X.X.X.X.1 y f X f y 1 X.X.X.X.X.X.X.X.'       ",
"      [ X.X.X.X.X.X.X.X.X.X.> f X f > X.X.X.X.X.X.X.X.X.]       ",
"       .X.X.X.X.X.X.X.X.X.X.2 V X V 2 X.X.X.X.X.X.X.X.X. .      ",
"      T X.X.X.X.X.X.X.X.X.X.X.- X - X.X.X.X.X.X.X.X.X.X.Q       ",
"      7 X.X.X.X.X.X.X.X.X.X.X.p X p X.X.X.X.X.X.X.X.X.X.r       ",
"        n X.X.X.X.X.X.X.X.X.X.N & N X.X.X.X.X.X.X.X.X.M         ",
"          t J _ ' ' ' ' ' ' ' ' ' ' ' ' ' ' ' ' ` P u           ",
"                                                                "
};
