/* XPM */
static char *graphic[] = {
/* width height num_colors chars_per_pixel */
"64 64 193 2", 
/* colors */
"   c None",
".  c #444444",
"X  c #888888",
"o  c #AAAAAA",
"O  c #CCCCCC",
"+  c None",
"@  c #535353",
"#  c #979797",
"$  c #B9B9B9",
"%  c None",
"&  c #FDFDFD",
"*  c #626262",
"=  c #848484",
"-  c None",
";  c #C8C8C8",
":  c #2D2D2D",
">  c None",
",  c #4F4F4F",
"<  c #939393",
"1  c #F9F9F9",
"2  c None",
"3  c #1A1A1A",
"4  c #3C3C3C",
"5  c None",
"6  c #A2A2A2",
"7  c #070707",
"8  c None",
"9  c #292929",
"0  c #6D6D6D",
"q  c #8F8F8F",
"w  c #B1B1B1",
"e  c #F5F5F5",
"r  c #161616",
"t  c #383838",
"y  c #7C7C7C",
"u  c #9E9E9E",
"i  c #C0C0C0",
"p  c #E2E2E2",
"a  c #030303",
"s  c #696969",
"d  c #ADADAD",
"f  c #F1F1F1",
"g  c #565656",
"h  c #9A9A9A",
"j  c #212121",
"k  c #656565",
"l  c #EDEDED",
"z  c #0E0E0E",
"x  c #525252",
"c  c #747474",
"v  c #B8B8B8",
"b  c #FCFCFC",
"n  c #3F3F3F",
"m  c #616161",
"M  c #838383",
"N  c #A5A5A5",
"B  c #E9E9E9",
"V  c #707070",
"C  c #929292",
"Z  c #B4B4B4",
"A  c #191919",
"S  c #3B3B3B",
"D  c #5D5D5D",
"F  c #7F7F7F",
"G  c #A1A1A1",
"H  c #C3C3C3",
"J  c #060606",
"K  c None",
"L  c #4A4A4A",
"P  c None",
"I  c #6C6C6C",
"U  c #8E8E8E",
"Y  c None",
"T  c #F4F4F4",
"R  c #373737",
"E  c None",
"W  c #BFBFBF",
"Q  c #E1E1E1",
"!  c None",
"~  c #464646",
"^  c #686868",
"/  c None",
"(  c #8A8A8A",
")  c None",
"_  c #CECECE",
"`  c None",
"'  c #000000",
"]  c #555555",
"[  c #777777",
"{  c #999999",
"}  c #000000",
"|  c #BBBBBB",
" . c #000000",
".. c #FFFFFF",
"X. c #000000",
"o. c #A8A8A8",
"O. c #CACACA",
"+. c #000000",
"@. c #737373",
"#. c #000000",
"$. c #B7B7B7",
"%. c #D9D9D9",
"&. c #FBFBFB",
"*. c #1C1C1C",
"=. c #3E3E3E",
"-. c #C6C6C6",
";. c #E8E8E8",
":. c #2B2B2B",
">. c #4D4D4D",
",. c #B3B3B3",
"<. c #F7F7F7",
"1. c #181818",
"2. c #5C5C5C",
"3. c #050505",
"4. c #000000",
"5. c #494949",
"6. c #000000",
"7. c #000000",
"8. c #8D8D8D",
"9. c #AFAFAF",
"0. c #D1D1D1",
"q. c #F3F3F3",
"w. c #000000",
"e. c #141414",
"r. c #000000",
"t. c #363636",
"y. c #7A7A7A",
"u. c #000000",
"i. c #BEBEBE",
"p. c #000000",
"a. c #010101",
"s. c #000000",
"d. c #676767",
"f. c #000000",
"g. c #898989",
"h. c #000000",
"j. c #EFEFEF",
"k. c #000000",
"l. c #000000",
"z. c #323232",
"x. c #989898",
"c. c #000000",
"v. c #DCDCDC",
"b. c #000000",
"n. c #FEFEFE",
"m. c #1F1F1F",
"M. c #414141",
"N. c #000000",
"B. c #636363",
"V. c #A7A7A7",
"C. c #C9C9C9",
"Z. c #EBEBEB",
"A. c #727272",
"S. c #949494",
"D. c #B6B6B6",
"F. c #FAFAFA",
"G. c #3D3D3D",
"H. c #000000",
"J. c #5F5F5F",
"K. c #818181",
"L. c #000000",
"P. c #C5C5C5",
"I. c #E7E7E7",
"U. c #2A2A2A",
"Y. c #000000",
"T. c #4C4C4C",
"R. c #000000",
"E. c #000000",
"W. c #000000",
"Q. c #F6F6F6",
"!. c #000000",
"~. c #171717",
"^. c #393939",
"/. c #000000",
"(. c #000000",
"). c #E3E3E3",
"_. c #040404",
"`. c #000000",
"'. c #262626",
"]. c #000000",
"[. c #000000",
"{. c #6A6A6A",
"}. c #000000",
"|. c #000000",
" X c #AEAEAE",
".X c #D0D0D0",
"XX c #353535",
"oX c #575757",
"OX c #000000",
"+X c #797979",
"@X c #9B9B9B",
"#X c #000000",
"$X c #000000",
/* pixels */
"                                                                                                                                ",
"                                                                                                                                ",
"                    - P 4.H.`.].].].].].].].].].].].].].].].].].].].].].].].].].].].].].].].].].].`.L.7.Y >                     ",
"                  ! (.$X$X$X$X$X$X$X$X$X$X$X$X$X$X$X$X$X$X$X$X$X$X$X$X$X$X$X$X$X$X$X$X$X$X$X$X$X$X$X$X$X$X|.'                   ",
"                6.$X$X$X$X$X$X$X$X$X$X$X$X$X$X$X$X$X$X$X$X7 A.U.@XU.A.7 $X$X$X$X$X$X$X$X$X$X$X$X$X$X$X$X$X$X$Xp.                ",
"              r.$X$X$X$X$X$X$X$X$X$X$X$X$X$X$X$X$X$X$X_.y.p t.C...C.R p y._.$X$X$X$X$X$X$X$X$X$X$X$X$X$X$X$X$X$Xh.              ",
"            E $X$X$X$X$X$X$X$X$X$X$X$X$X$X$X$X$X$Xa.V B e G.W ......W G.e B V a.$X$X$X$X$X$X$X$X$X$X$X$X$X$X$X$X$X .            ",
"          % #X$X$X$X$X$X$X$X$X$X$X$X$X$X$X$X$X$Xm )...Q.. Z ..........Z . Q...).m $X$X$X$X$X$X$X$X$X$X$X$X$X$X$X$X$X>           ",
"          K $X$X$X$X$X$X$X$X$X$X$X$X$X$X$X$Xg %.....F.T. X.............. XT.F.....%.g $X$X$X$X$X$X$X$X$X$X$X$X$X$X$X)           ",
"          w.$X$X$X$X$X$X$X$X$X$X$X$X$X$X5..X......& x V...................V.x & .......X5.$X$X$X$X$X$X$X$X$X$X$X$X$Xl.          ",
"          E.$X$X$X$X$X$X$X$X$X$X$X$X=.P.........& 2.x.......................x.2.& ........P.=.$X$X$X$X$X$X$X$X$X$X$X!.          ",
"          |.$X$X$X$X$X$X$X$X$X$X:.$ ............s 8...........................8.s ............$ :.$X$X$X$X$X$X$X$X$X}.          ",
"          [.$X$X$X$X$X$X$X$X$X3.;.............@.= ..............................= @.............;.3.$X$X$X$X$X$X$X$X[.          ",
"          ].$X$X$X$X$X$X$X$X$X( ............y +X..................................+Xy ............( $X$X$X$X$X$X$X$X].          ",
"          ].$X$X$X$X$X$X$X$Xj F...........g.{.......................................{.g...........F.j $X$X$X$X$X$X$X].          ",
"          ].$X$X$X$X$X$X$X$X$.........b q m ..........................................m q b ........$.$X$X$X$X$X$X$X].          ",
"          ].$X$X$X$X$X$X$XL ....0.U T.4 D n Q ......................................Q n D 4 T.U 0.....L $X$X$X$X$X$X].          ",
"          ].$X$X$X$X$X$X$X@.] t I w j.....O.: G ..................................G : O.....j.w I t ] @.$X$X$X$X$X$X].          ",
"          ].$X$X$X$X$X$X$XC I...............T d.x l ..........................l x d.T ..............I.C $X$X$X$X$X$X].          ",
"          ].$X$X$X$X$X$X$XS 1 ..................Z 9 v ......................v 9 Z ..................1 S $X$X$X$X$X$X].          ",
"          ].$X$X$X$X$X$X$X$Xg ....................Z.>.{.Q...............Q.{.>.Z.....................g $X$X$X$X$X$X$X].          ",
"          ].$X$X$X$X$X$X$X$X$X[ ......................h : O ..........O : h ......................[ $X$X$X$X$X$X$X$X].          ",
"          ].$X$X$X$X$X$X$X$X$X7 x.......................v.t M b ..b M t v.......................# 7 $X$X$X$X$X$X$X$X].          ",
"          ].$X$X$X$X$X$X$X$X$Xx j D.......................b K.^.| ^.K.b ......................D.j x $X$X$X$X$X$X$X$X].          ",
"          ].$X$X$X$X$X$X$X$X$Xa ; ~._ ........................O.$XO........................._ ~.; a $X$X$X$X$X$X$X$X].          ",
"          ].$X$X$X$X$X$X$X$X$X$XX P.A Q ........................$X........................Q A P.X $X$X$X$X$X$X$X$X$X].          ",
"          ].$X$X$X$X$X$X$X$X$X$Xr &.d '.j.......................$X......................j.'.d &.r $X$X$X$X$X$X$X$X$X].          ",
"          ].$X$X$X$X$X$X$X$X$X$X$Xo...8.4 &.....................$X....................&.4 8...o.$X$X$X$X$X$X$X$X$X$X].          ",
"          ].$X$X$X$X$X$X$X$X$X$X$Xz....., Z ....................$X....................Z , ....z.$X$X$X$X$X$X$X$X$X$X].          ",
"          ].$X$X$X$X$X$X$X$X$X$X$X$X-...,.D ....................$X....................D ,...-.$X$X$X$X$X$X$X$X$X$X$X].          ",
"          ].$X$X$X$X$X$X$X$X$X$X$X$X@ ..1 ~.1 ..................$X..................1 ~.1 ..@ $X$X$X$X$X$X$X$X$X$X$X].          ",
"          ].$X$X$X$X$X$X$X$X$X$X$X$X$XQ ..D Z ..................$X..................Z D ..Q $X$X$X$X$X$X$X$X$X$X$X$X].          ",
"          ].$X$X$X$X$X$X$X$X$X$X$X$X$Xc ..Z oX..................$X..................oXZ ..c $X$X$X$X$X$X$X$X$X$X$X$X].          ",
"          ].$X$X$X$X$X$X$X$X$X$X$X$X$XJ T 1 r <.................$X................<.r 1 q.J $X$X$X$X$X$X$X$X$X$X$X$X].          ",
"          ].$X$X$X$X$X$X$X$X$X$X$X$X$X$X< ..B.9.................$X................9.B...< $X$X$X$X$X$X$X$X$X$X$X$X$X].          ",
"          ].$X$X$X$X$X$X$X$X$X$X$X$X$X$Xm.n.$ oX................$X................oX$ n.m.$X$X$X$X$X$X$X$X$X$X$X$X$X].          ",
"          ].$X$X$X$X$X$X$X$X$X$X$X$X$X$X$X,.&.e.T ..............$X..............T e.&.,.$X$X$X$X$X$X$X$X$X$X$X$X$X$X].          ",
"          ].$X$X$X$X$X$X$X$X$X$X$X$X$X$X$X=...k o ..............$X..............o k ..=.$X$X$X$X$X$X$X$X$X$X$X$X$X$X].          ",
"          ].$X$X$X$X$X$X$X$X$X$X$X$X$X$X$X$X0.i.x ..............$X..............x i.0.$X$X$X$X$X$X$X$X$X$X$X$X$X$X$X].          ",
"          ].$X$X$X$X$X$X$X$X$X$X$X$X$X$X$X$XJ.& 1.T ............$X............T 1.& J.$X$X$X$X$X$X$X$X$X$X$X$X$X$X$X].          ",
"          ].$X$X$X$X$X$X$X$X$X$X$X$X$X$X$X$Xa.B ^ V.............$X............V.^ B a.$X$X$X$X$X$X$X$X$X$X$X$X$X$X$X].          ",
"          ].$X$X$X$X$X$X$X$X$X$X$X$X$X$X$X$X$XF i T.............$X............T.i F $X$X$X$X$X$X$X$X$X$X$X$X$X$X$X$X].          ",
"          ].$X$X$X$X$X$X$X$X$X$X$X$X$X$X$X$X$Xz Q.3 f ..........$X..........f 3 Q.z $X$X$X$X$X$X$X$X$X$X$X$X$X$X$X$X].          ",
"          ].$X$X$X$X$X$X$X$X$X$X$X$X$X$X$X$X$X$Xu 0 N ..........$X..........N 0 u $X$X$X$X$X$X$X$X$X$X$X$X$X$X$X$X$X].          ",
"          ].$X$X$X$X$X$X$X$X$X$X$X$X$X$X$X$X$X$X9 H 5...........$X..........5.H 9 $X$X$X$X$X$X$X$X$X$X$X$X$X$X$X$X$X].          ",
"          ].$X$X$X$X$X$X$X$X$X$X$X$X$X$X$X$X$X$X$X| 1.j.........$X........j.1.| $X$X$X$X$X$X$X$X$X$X$X$X$X$X$X$X$X$X].          ",
"          ].$X$X$X$X$X$X$X$X$X$X$X$X$X$X$X$X$X$X$XL c u ........$X........u c L $X$X$X$X$X$X$X$X$X$X$X$X$X$X$X$X$X$X].          ",
"          ].$X$X$X$X$X$X$X$X$X$X$X$X$X$X$X$X$X$X$X$X6 ~ ........$X........~ 6 $X$X$X$X$X$X$X$X$X$X$X$X$X$X$X$X$X$X$X].          ",
"          ].$X$X$X$X$X$X$X$X$X$X$X$X$X$X$X$X$X$X$X$Xs *.l ......$X......l *.s $X$X$X$X$X$X$X$X$X$X$X$X$X$X$X$X$X$X$X].          ",
"          ].$X$X$X$X$X$X$X$X$X$X$X$X$X$X$X$X$X$X$X$Xa * { ......$X......{ * a $X$X$X$X$X$X$X$X$X$X$X$X$X$X$X$X$X$X$X].          ",
"          ].$X$X$X$X$X$X$X$X$X$X$X$X$X$X$X$X$X$X$X$X$X] M.......$X......M.] $X$X$X$X$X$X$X$X$X$X$X$X$X$X$X$X$X$X$X$X].          ",
"          [.$X$X$X$X$X$X$X$X$X$X$X$X$X$X$X$X$X$X$X$X$X~.*.Z.....$X....Z.*.~.$X$X$X$X$X$X$X$X$X$X$X$X$X$X$X$X$X$X$X$X[.          ",
"          |.$X$X$X$X$X$X$X$X$X$X$X$X$X$X$X$X$X$X$X$X$X$X1.x.....$X....x.1.$X$X$X$X$X$X$X$X$X$X$X$X$X$X$X$X$X$X$X$X$X}.          ",
"          W.$X$X$X$X$X$X$X$X$X$X$X$X$X$X$X$X$X$X$X$X$X$X$XS ....$X....S $X$X$X$X$X$X$X$X$X$X$X$X$X$X$X$X$X$X$X$X$X$X/.          ",
"          u.$X$X$X$X$X$X$X$X$X$X$X$X$X$X$X$X$X$X$X$X$X$X$X$XI...$X..I.$X$X$X$X$X$X$X$X$X$X$X$X$X$X$X$X$X$X$X$X$X$X$Xc.          ",
"          E $X$X$X$X$X$X$X$X$X$X$X$X$X$X$X$X$X$X$X$X$X$X$X$XS...$X..S.$X$X$X$X$X$X$X$X$X$X$X$X$X$X$X$X$X$X$X$X$X$X$X}           ",
"          - $X$X$X$X$X$X$X$X$X$X$X$X$X$X$X$X$X$X$X$X$X$X$X$XS ..$X..^.$X$X$X$X$X$X$X$X$X$X$X$X$X$X$X$X$X$X$X$X$X$X$X2           ",
"            ` $X$X$X$X$X$X$X$X$X$X$X$X$X$X$X$X$X$X$X$X$X$X$X$X).$X).$X$X$X$X$X$X$X$X$X$X$X$X$X$X$X$X$X$X$X$X$X$X$X#.            ",
"              k.$X$X$X$X$X$X$X$X$X$X$X$X$X$X$X$X$X$X$X$X$X$X$XU $XU $X$X$X$X$X$X$X$X$X$X$X$X$X$X$X$X$X$X$X$X$X$XN.              ",
"                s.$X$X$X$X$X$X$X$X$X$X$X$X$X$X$X$X$X$X$X$X$X$XXX$XXX$X$X$X$X$X$X$X$X$X$X$X$X$X$X$X$X$X$X$X$X$Xb.+               ",
"                  X.OX$X$X$X$X$X$X$X$X$X$X$X$X$X$X$X$X$X$X$X$X$X$X$X$X$X$X$X$X$X$X$X$X$X$X$X$X$X$X$X$X$X$X$X+.                  ",
"                    5 / p.Y.`.].].].].].].].].].].].].].].].].].].].].].].].].].].].].].].].].].].].R.f.` 8                     ",
"                                                                                                                                ",
"                                                                                                                                "
};
